{
  "accessors": [
    {
      "bufferView": 2,
      "componentType": 5126,
      "count": 934,
      "max": [
        1.5924999713897705,
        0.5,
        26.94713592529297
      ],
      "min": [
        -19.180654525756836,
        -0.6930930018424988,
        -0.5
      ],
      "type": "VEC3"
    },
    {
      "bufferView": 2,
      "byteOffset": 11208,
      "componentType": 5126,
      "count": 934,
      "max": [
        1.0,
        1.0,
        0.9982396364212036
      ],
      "min": [
        -1.0,
        -1.0,
        -0.9982946515083313
      ],
      "type": "VEC3"
    },
    {
      "bufferView": 1,
      "componentType": 5126,
      "count": 934,
      "max": [
        0.8758789896965027,
        0.6926299929618835
      ],
      "min": [
        0.06951099634170532,
        0.4831939935684204
      ],
      "type": "VEC2"
    },
    {
      "bufferView": 0,
      "componentType": 5125,
      "count": 5163,
      "type": "SCALAR"
    },
    {
      "bufferView": 2,
      "byteOffset": 22416,
      "componentType": 5126,
      "count": 2697,
      "max": [
        11.568081855773926,
        11.294185638427734,
        0.46703600883483887
      ],
      "min": [
        -11.153693199157715,
        -11.427594184875488,
        -7.320858955383301
      ],
      "type": "VEC3"
    },
    {
      "bufferView": 2,
      "byteOffset": 54780,
      "componentType": 5126,
      "count": 2697,
      "max": [
        0.9959611296653748,
        0.9959604740142822,
        0.9949466586112976
      ],
      "min": [
        -0.9959612488746643,
        -0.9959604740142822,
        -1.0
      ],
      "type": "VEC3"
    },
    {
      "bufferView": 1,
      "byteOffset": 7472,
      "componentType": 5126,
      "count": 2697,
      "max": [
        1.0,
        1.0
      ],
      "min": [
        0.0,
        0.0
      ],
      "type": "VEC2"
    },
    {
      "bufferView": 0,
      "byteOffset": 20652,
      "componentType": 5125,
      "count": 15696,
      "type": "SCALAR"
    },
    {
      "bufferView": 2,
      "byteOffset": 87144,
      "componentType": 5126,
      "count": 1677,
      "max": [
        4.904848098754883,
        4.987268924713135,
        0.4424299895763397
      ],
      "min": [
        -4.895664215087891,
        -4.813241958618164,
        -3.895488977432251
      ],
      "type": "VEC3"
    },
    {
      "bufferView": 2,
      "byteOffset": 107268,
      "componentType": 5126,
      "count": 1677,
      "max": [
        1.0,
        1.0,
        1.0
      ],
      "min": [
        -1.0,
        -1.0,
        -1.0
      ],
      "type": "VEC3"
    },
    {
      "bufferView": 1,
      "byteOffset": 29048,
      "componentType": 5126,
      "count": 1677,
      "max": [
        1.0,
        1.0
      ],
      "min": [
        0.0,
        0.0
      ],
      "type": "VEC2"
    },
    {
      "bufferView": 0,
      "byteOffset": 83436,
      "componentType": 5125,
      "count": 9360,
      "type": "SCALAR"
    },
    {
      "bufferView": 2,
      "byteOffset": 127392,
      "componentType": 5126,
      "count": 696,
      "max": [
        9.721142768859863,
        9.650530815124512,
        3.8404300212860107
      ],
      "min": [
        -8.399213790893555,
        -10.06969165802002,
        0.13001400232315063
      ],
      "type": "VEC3"
    },
    {
      "bufferView": 2,
      "byteOffset": 135744,
      "componentType": 5126,
      "count": 696,
      "max": [
        0.7040610313415527,
        0.7806838750839233,
        0.9999755024909973
      ],
      "min": [
        -0.7378102540969849,
        -0.6225680708885193,
        0.6248919367790222
      ],
      "type": "VEC3"
    },
    {
      "bufferView": 1,
      "byteOffset": 42464,
      "componentType": 5126,
      "count": 696,
      "max": [
        0.6383429765701294,
        0.9740200042724609
      ],
      "min": [
        0.3616569936275482,
        0.02597999945282936
      ],
      "type": "VEC2"
    },
    {
      "bufferView": 0,
      "byteOffset": 120876,
      "componentType": 5125,
      "count": 2856,
      "type": "SCALAR"
    },
    {
      "bufferView": 2,
      "byteOffset": 144096,
      "componentType": 5126,
      "count": 9956,
      "max": [
        3.4785420894622803,
        0.19856099784374237,
        28.147216796875
      ],
      "min": [
        -19.72021484375,
        -3.199846029281616,
        18.458942413330078
      ],
      "type": "VEC3"
    },
    {
      "bufferView": 2,
      "byteOffset": 263568,
      "componentType": 5126,
      "count": 9956,
      "max": [
        0.9988952279090881,
        0.9997184872627258,
        0.9999586343765259
      ],
      "min": [
        -0.9993896484375,
        -0.9999890923500061,
        -0.9998737573623657
      ],
      "type": "VEC3"
    },
    {
      "bufferView": 1,
      "byteOffset": 48032,
      "componentType": 5126,
      "count": 9956,
      "max": [
        0.7984399795532227,
        0.8624529838562012
      ],
      "min": [
        0.14961299300193787,
        0.19951200485229492
      ],
      "type": "VEC2"
    },
    {
      "bufferView": 0,
      "byteOffset": 132300,
      "componentType": 5125,
      "count": 53868,
      "type": "SCALAR"
    },
    {
      "bufferView": 2,
      "byteOffset": 383040,
      "componentType": 5126,
      "count": 3399,
      "max": [
        2.474889039993286,
        0.16597199440002441,
        29.347209930419922
      ],
      "min": [
        -9.173927307128906,
        -2.6973469257354736,
        17.25486946105957
      ],
      "type": "VEC3"
    },
    {
      "bufferView": 2,
      "byteOffset": 423828,
      "componentType": 5126,
      "count": 3399,
      "max": [
        0.9993767738342285,
        0.9975554943084717,
        0.999934732913971
      ],
      "min": [
        -0.9996556639671326,
        -0.9997916221618652,
        -0.9946330189704895
      ],
      "type": "VEC3"
    },
    {
      "bufferView": 1,
      "byteOffset": 127680,
      "componentType": 5126,
      "count": 3399,
      "max": [
        0.7984399795532227,
        0.8624529838562012
      ],
      "min": [
        0.14961299300193787,
        0.19951200485229492
      ],
      "type": "VEC2"
    },
    {
      "bufferView": 0,
      "byteOffset": 347772,
      "componentType": 5125,
      "count": 17988,
      "type": "SCALAR"
    }
  ],
  "asset": {
    "extras": {
      "author": "gottalovehana (https://sketchfab.com/gottalovehana)",
      "license": "CC-BY-4.0 (http://creativecommons.org/licenses/by/4.0/)",
      "source": "https://sketchfab.com/3d-models/white-orchid-e42292df3bbc474f843443a78a1c5843",
      "title": "White Orchid"
    },
    "generator": "Sketchfab-12.68.0",
    "version": "2.0"
  },
  "bufferViews": [
    {
      "buffer": 0,
      "byteLength": 419724,
      "name": "floatBufferViews",
      "target": 34963
    },
    {
      "buffer": 0,
      "byteLength": 154872,
      "byteOffset": 419724,
      "byteStride": 8,
      "name": "floatBufferViews",
      "target": 34962
    },
    {
      "buffer": 0,
      "byteLength": 464616,
      "byteOffset": 574596,
      "byteStride": 12,
      "name": "floatBufferViews",
      "target": 34962
    }
  ],
  "buffers": [
    {
      "byteLength": 1039212,
      "uri": "scene.bin"
    }
  ],
  "images": [
    {
      "uri": "textures/blinn1SG_baseColor.png"
    },
    {
      "uri": "textures/lambert3SG_baseColor.png"
    },
    {
      "uri": "textures/lambert4SG_baseColor.jpeg"
    },
    {
      "uri": "textures/lambert5SG_baseColor.png"
    },
    {
      "uri": "textures/lambert5SG_metallicRoughness.png"
    }
  ],
  "materials": [
    {
      "doubleSided": true,
      "name": "blinn1SG",
      "pbrMetallicRoughness": {
        "baseColorTexture": {
          "index": 0
        },
        "metallicFactor": 0.0,
        "roughnessFactor": 0.6
      }
    },
    {
      "alphaMode": "BLEND",
      "doubleSided": true,
      "name": "lambert3SG",
      "pbrMetallicRoughness": {
        "baseColorTexture": {
          "index": 1
        },
        "metallicFactor": 0.0,
        "roughnessFactor": 0.6
      }
    },
    {
      "doubleSided": true,
      "emissiveFactor": [
        0.32202743902439024,
        0.32202743902439024,
        0.32202743902439024
      ],
      "emissiveTexture": {
        "index": 2
      },
      "name": "lambert4SG",
      "pbrMetallicRoughness": {
        "baseColorTexture": {
          "index": 2
        },
        "metallicFactor": 0.0,
        "roughnessFactor": 0.6
      }
    },
    {
      "doubleSided": true,
      "name": "lambert5SG",
      "pbrMetallicRoughness": {
        "baseColorTexture": {
          "index": 3
        },
        "metallicFactor": 0.0,
        "metallicRoughnessTexture": {
          "index": 4
        }
      }
    },
    {
      "doubleSided": true,
      "name": "phong1SG",
      "pbrMetallicRoughness": {
        "baseColorFactor": [
          0.5302436012718923,
          0.5469729369111542,
          0.1851159308106945,
          1.0
        ],
        "metallicFactor": 0.0,
        "roughnessFactor": 0.22389481707317072
      }
    }
  ],
  "meshes": [
    {
      "name": "Object_0",
      "primitives": [
        {
          "attributes": {
            "NORMAL": 1,
            "POSITION": 0,
            "TEXCOORD_0": 2
          },
          "indices": 3,
          "material": 0,
          "mode": 4
        }
      ]
    },
    {
      "name": "Object_1",
      "primitives": [
        {
          "attributes": {
            "NORMAL": 5,
            "POSITION": 4,
            "TEXCOORD_0": 6
          },
          "indices": 7,
          "material": 4,
          "mode": 4
        }
      ]
    },
    {
      "name": "Object_2",
      "primitives": [
        {
          "attributes": {
            "NORMAL": 9,
            "POSITION": 8,
            "TEXCOORD_0": 10
          },
          "indices": 11,
          "material": 3,
          "mode": 4
        }
      ]
    },
    {
      "name": "Object_3",
      "primitives": [
        {
          "attributes": {
            "NORMAL": 13,
            "POSITION": 12,
            "TEXCOORD_0": 14
          },
          "indices": 15,
          "material": 1,
          "mode": 4
        }
      ]
    },
    {
      "name": "Object_4",
      "primitives": [
        {
          "attributes": {
            "NORMAL": 17,
            "POSITION": 16,
            "TEXCOORD_0": 18
          },
          "indices": 19,
          "material": 2,
          "mode": 4
        }
      ]
    },
    {
      "name": "Object_5",
      "primitives": [
        {
          "attributes": {
            "NORMAL": 21,
            "POSITION": 20,
            "TEXCOORD_0": 22
          },
          "indices": 23,
          "material": 2,
          "mode": 4
        }
      ]
    }
  ],
  "nodes": [
    {
      "children": [
        1
      ],
      "matrix": [
        0.049409169703722,
        0.0,
        0.0,
        0.0,
        0.0,
        1.0971039566536778e-17,
        -0.049409169703722,
        0.0,
        0.0,
        0.049409169703722,
        1.0971039566536778e-17,
        0.0,
        0.0,
        0.0,
        0.0,
        1.0
      ],
      "name": "Sketchfab_model"
    },
    {
      "children": [
        2,
        3,
        4,
        5,
        6,
        7
      ],
      "name": "Orchid_Week8.obj.cleaner.materialmerger.gles"
    },
    {
      "mesh": 0,
      "name": "Object_2"
    },
    {
      "mesh": 1,
      "name": "Object_3"
    },
    {
      "mesh": 2,
      "name": "Object_4"
    },
    {
      "mesh": 3,
      "name": "Object_5"
    },
    {
      "mesh": 4,
      "name": "Object_6"
    },
    {
      "mesh": 5,
      "name": "Object_7"
    }
  ],
  "samplers": [
    {
      "magFilter": 9729,
      "minFilter": 9987,
      "wrapS": 10497,
      "wrapT": 10497
    }
  ],
  "scene": 0,
  "scenes": [
    {
      "name": "Sketchfab_Scene",
      "nodes": [
        0
      ]
    }
  ],
  "textures": [
    {
      "sampler": 0,
      "source": 0
    },
    {
      "sampler": 0,
      "source": 1
    },
    {
      "sampler": 0,
      "source": 2
    },
    {
      "sampler": 0,
      "source": 3
    },
    {
      "sampler": 0,
      "source": 4
    }
  ]
}
