{
  "accessors": [
    {
      "bufferView": 2,
      "componentType": 5126,
      "count": 995,
      "max": [
        6.203296184539795,
        6.404022216796875,
        0.8327929973602295
      ],
      "min": [
        -6.6047468185424805,
        -6.4040207862854,
        -0.8180720210075378
      ],
      "type": "VEC3"
    },
    {
      "bufferView": 2,
      "byteOffset": 11940,
      "componentType": 5126,
      "count": 995,
      "max": [
        0.9966797828674316,
        0.9963136315345764,
        0.0033162166364490986
      ],
      "min": [
        -0.9991745948791504,
        -0.9997384548187256,
        -1.0
      ],
      "type": "VEC3"
    },
    {
      "bufferView": 1,
      "componentType": 5126,
      "count": 995,
      "max": [
        0.0,
        0.0
      ],
      "min": [
        0.0,
        0.0
      ],
      "type": "VEC2"
    },
    {
      "bufferView": 0,
      "componentType": 5125,
      "count": 3087,
      "type": "SCALAR"
    },
    {
      "bufferView": 2,
      "byteOffset": 23880,
      "componentType": 5126,
      "count": 24408,
      "max": [
        6.203296184539795,
        6.404022216796875,
        5.701229095458984
      ],
      "min": [
        -6.604745864868164,
        -6.4040207862854,
        -0.5848249793052673
      ],
      "type": "VEC3"
    },
    {
      "bufferView": 2,
      "byteOffset": 316776,
      "componentType": 5126,
      "count": 24408,
      "max": [
        0.9998754858970642,
        0.9998112916946411,
        0.9999960660934448
      ],
      "min": [
        -0.9997915625572205,
        -0.9997448325157166,
        -0.9999769926071167
      ],
      "type": "VEC3"
    },
    {
      "bufferView": 1,
      "byteOffset": 7960,
      "componentType": 5126,
      "count": 24408,
      "max": [
        0.9960579872131348,
        0.998865008354187
      ],
      "min": [
        0.01269499957561493,
        0.0037869999650865793
      ],
      "type": "VEC2"
    },
    {
      "bufferView": 0,
      "byteOffset": 12348,
      "componentType": 5125,
      "count": 108990,
      "type": "SCALAR"
    }
  ],
  "asset": {
    "extras": {
      "author": "Thomas Flynn (https://sketchfab.com/nebulousflynn)",
      "license": "CC-BY-4.0 (http://creativecommons.org/licenses/by/4.0/)",
      "source": "https://sketchfab.com/3d-models/shaggy-parasol-mushroom-mature-young-7987d22903294567842a5304fcd542f5",
      "title": "Shaggy Parasol Mushroom (Mature + Young)"
    },
    "generator": "Sketchfab-12.65.0",
    "version": "2.0"
  },
  "bufferViews": [
    {
      "buffer": 0,
      "byteLength": 448308,
      "name": "floatBufferViews",
      "target": 34963
    },
    {
      "buffer": 0,
      "byteLength": 203224,
      "byteOffset": 448308,
      "byteStride": 8,
      "name": "floatBufferViews",
      "target": 34962
    },
    {
      "buffer": 0,
      "byteLength": 609672,
      "byteOffset": 651532,
      "byteStride": 12,
      "name": "floatBufferViews",
      "target": 34962
    }
  ],
  "buffers": [
    {
      "byteLength": 1261204,
      "uri": "scene.bin"
    }
  ],
  "extensionsUsed": [
    "KHR_materials_unlit"
  ],
  "images": [
    {
      "uri": "textures/mushroom-2_baseColor.jpeg"
    }
  ],
  "materials": [
    {
      "doubleSided": true,
      "extensions": {
        "KHR_materials_unlit": {}
      },
      "name": "mushroom-2",
      "pbrMetallicRoughness": {
        "baseColorFactor": [
          0.19,
          0.19,
          0.19,
          1.0
        ],
        "baseColorTexture": {
          "index": 0
        },
        "metallicFactor": 0.0
      }
    },
    {
      "doubleSided": true,
      "extensions": {
        "KHR_materials_unlit": {}
      },
      "name": "mushroom-2_mushroom-2.jpg",
      "pbrMetallicRoughness": {
        "baseColorTexture": {
          "index": 0
        },
        "metallicFactor": 0.0
      }
    }
  ],
  "meshes": [
    {
      "name": "Object_0",
      "primitives": [
        {
          "attributes": {
            "NORMAL": 1,
            "POSITION": 0,
            "TEXCOORD_0": 2
          },
          "indices": 3,
          "material": 0,
          "mode": 4
        }
      ]
    },
    {
      "name": "Object_1",
      "primitives": [
        {
          "attributes": {
            "NORMAL": 5,
            "POSITION": 4,
            "TEXCOORD_0": 6
          },
          "indices": 7,
          "material": 1,
          "mode": 4
        }
      ]
    }
  ],
  "nodes": [
    {
      "children": [
        1
      ],
      "matrix": [
        1.0,
        0.0,
        0.0,
        0.0,
        0.0,
        2.220446049250313e-16,
        -1.0,
        0.0,
        0.0,
        1.0,
        2.220446049250313e-16,
        0.0,
        0.0,
        0.0,
        0.0,
        1.0
      ],
      "name": "Sketchfab_model"
    },
    {
      "children": [
        2,
        3
      ],
      "name": "mushroom-2.obj.cleaner"
    },
    {
      "mesh": 0,
      "name": "Object_2"
    },
    {
      "mesh": 1,
      "name": "Object_3"
    }
  ],
  "samplers": [
    {
      "magFilter": 9729,
      "minFilter": 9987,
      "wrapS": 10497,
      "wrapT": 10497
    }
  ],
  "scene": 0,
  "scenes": [
    {
      "name": "Sketchfab_Scene",
      "nodes": [
        0
      ]
    }
  ],
  "textures": [
    {
      "sampler": 0,
      "source": 0
    }
  ]
}
