{
  "accessors": [
    {
      "bufferView": 2,
      "componentType": 5126,
      "count": 20472,
      "max": [
        8.842253684997559,
        14.33756160736084,
        10.684305191040039
      ],
      "min": [
        -8.842253684997559,
        -0.00028014183044433594,
        -15.757895469665527
      ],
      "type": "VEC3"
    },
    {
      "bufferView": 2,
      "byteOffset": 245664,
      "componentType": 5126,
      "count": 20472,
      "max": [
        0.9999601244926453,
        0.9999194145202637,
        0.9998961687088013
      ],
      "min": [
        -0.9999864101409912,
        -0.9999985694885254,
        -0.9993932247161865
      ],
      "type": "VEC3"
    },
    {
      "bufferView": 1,
      "componentType": 5126,
      "count": 20472,
      "max": [
        0.9805270433425903,
        0.9834809303283691
      ],
      "min": [
        0.028098981827497482,
        0.01578700542449951
      ],
      "type": "VEC2"
    },
    {
      "bufferView": 1,
      "byteOffset": 163776,
      "componentType": 5126,
      "count": 20472,
      "max": [
        0.9805270433425903,
        0.9834809303283691
      ],
      "min": [
        0.028098981827497482,
        0.01578700542449951
      ],
      "type": "VEC2"
    },
    {
      "bufferView": 1,
      "byteOffset": 327552,
      "componentType": 5126,
      "count": 20472,
      "max": [
        0.9805270433425903,
        0.9834809303283691
      ],
      "min": [
        0.028098981827497482,
        0.01578700542449951
      ],
      "type": "VEC2"
    },
    {
      "bufferView": 1,
      "byteOffset": 491328,
      "componentType": 5126,
      "count": 20472,
      "max": [
        0.9805270433425903,
        0.9834809303283691
      ],
      "min": [
        0.028098981827497482,
        0.01578700542449951
      ],
      "type": "VEC2"
    },
    {
      "bufferView": 1,
      "byteOffset": 655104,
      "componentType": 5126,
      "count": 20472,
      "max": [
        0.9805270433425903,
        0.9834809303283691
      ],
      "min": [
        0.028098981827497482,
        0.01578700542449951
      ],
      "type": "VEC2"
    },
    {
      "bufferView": 1,
      "byteOffset": 818880,
      "componentType": 5126,
      "count": 20472,
      "max": [
        0.9805270433425903,
        0.9834809303283691
      ],
      "min": [
        0.028098981827497482,
        0.01578700542449951
      ],
      "type": "VEC2"
    },
    {
      "bufferView": 1,
      "byteOffset": 982656,
      "componentType": 5126,
      "count": 20472,
      "max": [
        0.9805270433425903,
        0.9834809303283691
      ],
      "min": [
        0.028098981827497482,
        0.01578700542449951
      ],
      "type": "VEC2"
    },
    {
      "bufferView": 1,
      "byteOffset": 1146432,
      "componentType": 5126,
      "count": 20472,
      "max": [
        0.9805270433425903,
        0.9834809303283691
      ],
      "min": [
        0.028098981827497482,
        0.01578700542449951
      ],
      "type": "VEC2"
    },
    {
      "bufferView": 1,
      "byteOffset": 1310208,
      "componentType": 5126,
      "count": 20472,
      "max": [
        0.9805270433425903,
        0.9834809303283691
      ],
      "min": [
        0.028098981827497482,
        0.01578700542449951
      ],
      "type": "VEC2"
    },
    {
      "bufferView": 0,
      "componentType": 5125,
      "count": 112026,
      "type": "SCALAR"
    }
  ],
  "asset": {
    "extras": {
      "author": "CrappyTestAccount (https://sketchfab.com/testcrap)",
      "license": "CC-BY-4.0 (http://creativecommons.org/licenses/by/4.0/)",
      "source": "https://sketchfab.com/3d-models/your-grasshoppers-in-your-garden-ae2ac18f9c004f808668fc26d764772b",
      "title": "your grasshoppers in your garden"
    },
    "generator": "Sketchfab-14.60.0",
    "version": "2.0"
  },
  "bufferViews": [
    {
      "buffer": 0,
      "byteLength": 448104,
      "name": "floatBufferViews",
      "target": 34963
    },
    {
      "buffer": 0,
      "byteLength": 1473984,
      "byteOffset": 448104,
      "byteStride": 8,
      "name": "floatBufferViews",
      "target": 34962
    },
    {
      "buffer": 0,
      "byteLength": 491328,
      "byteOffset": 1922088,
      "byteStride": 12,
      "name": "floatBufferViews",
      "target": 34962
    }
  ],
  "buffers": [
    {
      "byteLength": 2413416,
      "uri": "scene.bin"
    }
  ],
  "images": [
    {
      "uri": "textures/Material_51_baseColor.png"
    }
  ],
  "materials": [
    {
      "doubleSided": true,
      "name": "Material_51",
      "pbrMetallicRoughness": {
        "baseColorTexture": {
          "index": 0
        },
        "metallicFactor": 0.0,
        "roughnessFactor": 0.0
      }
    }
  ],
  "meshes": [
    {
      "name": "node_id30_Material_51_0",
      "primitives": [
        {
          "attributes": {
            "NORMAL": 1,
            "POSITION": 0,
            "TEXCOORD_0": 2,
            "TEXCOORD_1": 3,
            "TEXCOORD_2": 4,
            "TEXCOORD_3": 5,
            "TEXCOORD_4": 6,
            "TEXCOORD_5": 7,
            "TEXCOORD_6": 8,
            "TEXCOORD_7": 9,
            "TEXCOORD_8": 10
          },
          "indices": 11,
          "material": 0,
          "mode": 4
        }
      ]
    }
  ],
  "nodes": [
    {
      "children": [
        1
      ],
      "matrix": [
        1.0,
        0.0,
        0.0,
        0.0,
        0.0,
        2.220446049250313e-16,
        -1.0,
        0.0,
        0.0,
        1.0,
        2.220446049250313e-16,
        0.0,
        0.0,
        0.0,
        0.0,
        1.0
      ],
      "name": "Sketchfab_model"
    },
    {
      "children": [
        2
      ],
      "matrix": [
        0.009999999776482582,
        0.0,
        0.0,
        0.0,
        0.0,
        0.0,
        0.009999999776482582,
        0.0,
        0.0,
        -0.009999999776482582,
        0.0,
        0.0,
        0.0,
        0.0,
        0.0,
        1.0
      ],
      "name": "5cf75e4bc0be4c62ab21772b47da6cf8.fbx"
    },
    {
      "children": [
        3
      ],
      "name": "RootNode"
    },
    {
      "children": [
        4
      ],
      "name": "root"
    },
    {
      "children": [
        5
      ],
      "matrix": [
        0.028951896354556084,
        0.0,
        0.0,
        0.0,
        0.0,
        0.028951896354556084,
        0.0,
        0.0,
        0.0,
        0.0,
        0.028951896354556084,
        0.0,
        2.3046207786592277e-07,
        -0.20754578709602356,
        0.45622092485427856,
        1.0
      ],
      "name": "node_id30"
    },
    {
      "mesh": 0,
      "name": "node_id30_Material_51_0"
    }
  ],
  "samplers": [
    {
      "magFilter": 9729,
      "minFilter": 9987,
      "wrapS": 10497,
      "wrapT": 10497
    }
  ],
  "scene": 0,
  "scenes": [
    {
      "name": "Sketchfab_Scene",
      "nodes": [
        0
      ]
    }
  ],
  "textures": [
    {
      "sampler": 0,
      "source": 0
    }
  ]
}
